<?xml version="1.0" encoding="UTF-8"?>
<svg xmlns="http://www.w3.org/2000/svg" xmlns:xlink="http://www.w3.org/1999/xlink" width="22px" height="24px" viewBox="0 0 22 24" version="1.1">
<g id="surface1">
<path style=" stroke:none;fill-rule:evenodd;fill:rgb(0%,26.666667%,50.980392%);fill-opacity:1;" d="M 10.363281 0.164062 C 10.757812 -0.0546875 11.242188 -0.0546875 11.632812 0.164062 C 13.578125 1.238281 19.421875 4.476562 21.363281 5.554688 C 21.757812 5.773438 22 6.175781 22 6.609375 C 22 8.761719 22 15.238281 22 17.390625 C 22 17.824219 21.757812 18.226562 21.363281 18.445312 C 19.421875 19.523438 13.578125 22.761719 11.632812 23.835938 C 11.242188 24.054688 10.757812 24.054688 10.363281 23.835938 C 8.421875 22.761719 2.578125 19.523438 0.632812 18.445312 C 0.242188 18.226562 0 17.828125 0 17.390625 C 0 15.238281 0 8.761719 0 6.609375 C 0 6.175781 0.242188 5.773438 0.636719 5.554688 C 2.578125 4.476562 8.421875 1.238281 10.363281 0.164062 Z M 10.363281 0.164062 "/>
<path style=" stroke:none;fill-rule:evenodd;fill:rgb(39.607843%,60.392157%,82.352941%);fill-opacity:1;" d="M 0.175781 17.945312 C 0.0234375 17.742188 0 17.546875 0 17.289062 C 0 15.148438 0 8.710938 0 6.570312 C 0 6.136719 0.242188 5.734375 0.632812 5.519531 C 2.570312 4.449219 8.394531 1.230469 10.328125 0.160156 C 10.722656 -0.0546875 11.253906 -0.0507812 11.644531 0.164062 C 13.578125 1.234375 19.386719 4.425781 21.320312 5.496094 C 21.476562 5.582031 21.597656 5.6875 21.703125 5.824219 Z M 0.175781 17.945312 "/>
<path style=" stroke:none;fill-rule:evenodd;fill:rgb(100%,100%,100%);fill-opacity:1;" d="M 11 4 C 15.472656 4 19.105469 7.585938 19.105469 12 C 19.105469 16.414062 15.472656 20 11 20 C 6.527344 20 2.894531 16.414062 2.894531 12 C 2.894531 7.585938 6.527344 4 11 4 Z M 11 8 C 13.238281 8 15.050781 9.792969 15.050781 12 C 15.050781 14.207031 13.238281 16 11 16 C 8.761719 16 6.949219 14.207031 6.949219 12 C 6.949219 9.792969 8.761719 8 11 8 Z M 11 8 "/>
<path style=" stroke:none;fill-rule:evenodd;fill:rgb(0%,34.901961%,61.176471%);fill-opacity:1;" d="M 21.703125 5.832031 C 22 6.109375 21.996094 6.523438 21.996094 6.851562 C 21.996094 9.019531 21.976562 15.1875 22 17.355469 C 22.003906 17.582031 21.925781 17.820312 21.8125 18 L 10.765625 12 Z M 21.703125 5.832031 "/>
</g>
</svg>
